<?xml version="1.0" encoding="UTF-8" standalone="no"?>
<!--
This file is a part of __PROGRAM_NAME__ __PROGRAM_VERSION__

__PROGRAM_COPYRIGHT__ __PROGRAM_AUTHOR__ __PROGRAM_AUTHOR_EMAIL__

This program is free software: you can redistribute it and/or modify
it under the terms of the GNU General Public License as published by
the Free Software Foundation, either version 3 of the License, or
(at your option) any later version.

This program is distributed in the hope that it will be useful,
but WITHOUT ANY WARRANTY; without even the implied warranty of
MERCHANTABILITY or FITNESS FOR A PARTICULAR PURPOSE.  See the
GNU General Public License for more details.

You should have received a copy of the GNU General Public License
along with this program.  If not, see <http://www.gnu.org/licenses/>.
-->
<!-- Created with Inkscape (http://www.inkscape.org/) -->

<svg
   xmlns:dc="http://purl.org/dc/elements/1.1/"
   xmlns:cc="http://creativecommons.org/ns#"
   xmlns:rdf="http://www.w3.org/1999/02/22-rdf-syntax-ns#"
   xmlns:svg="http://www.w3.org/2000/svg"
   xmlns="http://www.w3.org/2000/svg"
   xmlns:sodipodi="http://sodipodi.sourceforge.net/DTD/sodipodi-0.dtd"
   xmlns:inkscape="http://www.inkscape.org/namespaces/inkscape"
   width="100mm"
   height="100mm"
   viewBox="0 0 100 100"
   version="1.1"
   id="svg8"
   inkscape:version="0.92+devel unknown"
   sodipodi:docname="sakhtest.svg">
  <defs
     id="defs2" />
  <sodipodi:namedview
     id="base"
     pagecolor="#ffffff"
     bordercolor="#666666"
     borderopacity="1.0"
     inkscape:pageopacity="0.0"
     inkscape:pageshadow="2"
     inkscape:zoom="1.1456458"
     inkscape:cx="11.544813"
     inkscape:cy="236.53021"
     inkscape:document-units="mm"
     inkscape:current-layer="layer1"
     inkscape:document-rotation="0"
     showgrid="false"
     inkscape:window-width="1920"
     inkscape:window-height="1135"
     inkscape:window-x="0"
     inkscape:window-y="0"
     inkscape:window-maximized="1" />
  <metadata
     id="metadata5">
    <rdf:RDF>
      <cc:Work
         rdf:about="">
        <dc:format>image/svg+xml</dc:format>
        <dc:type
           rdf:resource="http://purl.org/dc/dcmitype/StillImage" />
        <dc:title />
      </cc:Work>
    </rdf:RDF>
  </metadata>
  <g
     inkscape:label="Layer 1"
     inkscape:groupmode="layer"
     id="layer1"
     transform="translate(0,-197)">
    <g
       id="g4300"
       style="fill:#ff6600;stroke:none"
       transform="matrix(2.4092266,0,0,2.425157,-28.62299,-319.9303)">
      <g
         id="g4292"
         style="fill:#ff6600;stroke:none">
        <path
           style="fill:#ff6600;stroke:none;stroke-width:0.26996282px;stroke-linecap:butt;stroke-linejoin:miter;stroke-opacity:1"
           d="m 22.343844,228.62915 c -1.879189,-1.88213 -7.570637,-7.96939 -6.800928,-10.14906 0.833638,-2.3607 3.069965,-2.06516 3.81848,-1.77752 1.439626,0.55321 4.874823,8.14285 5.419763,10.41397 0.199186,0.83014 -2.459157,1.44708 -2.437315,1.51261 z"
           id="path4269"
           inkscape:connector-curvature="0"
           sodipodi:nodetypes="cscsc" />
        <path
           sodipodi:nodetypes="cscscc"
           inkscape:connector-curvature="0"
           id="path4271"
           d="m 28.251556,226.38958 c -1.088272,-2.40471 -4.236494,-10.05346 -2.663459,-11.85746 1.70369,-1.95384 3.741615,-0.92992 4.35162,-0.40885 1.173235,1.00222 1.697228,10.23681 1.233883,11.648 -0.211986,0.64563 -2.922048,0.54182 -2.922048,0.61827 z"
           style="fill:#ff6600;stroke:none;stroke-width:0.27481815px;stroke-linecap:butt;stroke-linejoin:miter;stroke-opacity:1" />
        <path
           style="fill:#ff6600;stroke:none;stroke-width:0.27026665px;stroke-linecap:butt;stroke-linejoin:miter;stroke-opacity:1"
           d="m 34.738541,225.78776 c -0.309843,-2.54654 -0.999515,-10.56634 1.024566,-11.86643 2.192197,-1.40807 3.811071,0.0784 4.231579,0.72581 0.808767,1.24514 -1.828608,9.01599 -2.312082,11.30367 -0.122922,0.58164 -2.889788,-0.23089 -2.944063,-0.16305 z"
           id="path4273"
           inkscape:connector-curvature="0"
           sodipodi:nodetypes="cscsc" />
        <path
           sodipodi:nodetypes="cscsc"
           inkscape:connector-curvature="0"
           id="path4275"
           d="m 41.620597,227.19659 c 0.242842,-2.57691 1.312902,-10.64231 3.765205,-11.57577 2.655992,-1.01099 4.048491,0.74504 4.351368,1.46002 0.582519,1.3751 -3.788234,8.65929 -5.012181,10.79283 -0.378242,0.65934 -3.053325,-0.71538 -3.104392,-0.67708 z"
           style="fill:#ff6600;stroke:none;stroke-width:0.28298882px;stroke-linecap:butt;stroke-linejoin:miter;stroke-opacity:1" />
      </g>
      <path
         id="path4277"
         transform="matrix(0.26458333,0,0,0.26458333,0,197)"
         d="m 125.50781,122.72266 a 46.750059,46.750059 0 0 0 -46.749998,46.75 46.750059,46.750059 0 0 0 46.749998,46.75 46.750059,46.750059 0 0 0 46.75,-46.75 46.750059,46.750059 0 0 0 -46.75,-46.75 z m 0,14.96093 a 31.790043,31.79004 0 0 1 31.79102,31.78907 31.790043,31.79004 0 0 1 -31.79102,31.79101 31.790043,31.79004 0 0 1 -31.78906,-31.79101 31.790043,31.79004 0 0 1 31.78906,-31.78907 z"
         style="opacity:1;fill:#ff6600;stroke:none;stroke-width:0.98806894"
         inkscape:connector-curvature="0" />
    </g>
  </g>
</svg>
